Coordinates
version=1
nRows=4
nColumns=107
inDegrees=yes

Units are S.I. units (second, meters, Newtons, ...)
If the header above contains a line with 'inDegrees', this indicates whether rotational values are in degrees (yes) or radians (no).

endheader
time	sternoclavicular_r2	sternoclavicular_r3	unrotscap_r3	unrotscap_r2	acromioclavicular_r2	acromioclavicular_r3	acromioclavicular_r1	unrothum_r1	unrothum_r3	unrothum_r2	elv_angle	shoulder_elv	shoulder1_r2	shoulder_rot	elbow_flexion	pro_sup	deviation	flexion	proximal_distal_r1	proximal_distal_r3	cmc_flexion	cmc_abduction	mp_flexion	ip_flexion	mcp2_flexion	mcp2_abduction	pm2_flexion	md2_flexion	mcp3_flexion	mcp3_abduction	pm3_flexion	md3_flexion	mcp4_flexion	mcp4_abduction	pm4_flexion	md4_flexion	mcp5_flexion	mcp5_abduction	pm5_flexion	md5_flexion	bicpt_tx	bicpt_ty	bicpt_tz	bicpt2_tx	bicpt2_ty	bicpt2_tz	ptpt_tx	ptpt_ty	ptpt_tz	FCUpt_tx	FCUpt_ty	FCUpt_tz	EDCpt_tx	EDCpt_ty	EDCpt_tz	APLpt_tx	APLpt_ty	APLpt_tz	FPLpt_tx	FPLpt_ty	FPLpt_tz	FPLpt2_tx	FPLpt2_ty	FPLpt2_tz	PEC1pt2_tx	PEC1pt2_ty	PEC1pt2_tz	PEC1pt3_tx	PEC1pt3_ty	PEC1pt3_tz	PEC2pt2_tx	PEC2pt2_ty	PEC2pt2_tz	PEC2pt3_tx	PEC2pt3_ty	PEC2pt3_tz	PEC3pt2_tx	PEC3pt2_ty	PEC3pt2_tz	PEC3pt3_tx	PEC3pt3_ty	PEC3pt3_tz	DELT2pt2a_tx	DELT2pt2a_ty	DELT2pt2a_tz	DELT2pt2_tx	DELT2pt2_ty	DELT2pt2_tz	LAT1pt2_tx	LAT1pt2_ty	LAT1pt2_tz	LAT1pt3_tx	LAT1pt3_ty	LAT1pt3_tz	LAT2pt2_tx	LAT2pt2_ty	LAT2pt2_tz	LAT2pt3_tx	LAT2pt3_ty	LAT2pt3_tz	LAT3pt2_tx	LAT3pt2_ty	LAT3pt2_tz	LAT3pt3_tx	LAT3pt3_ty	LAT3pt3_tz
      0.46666667	     -0.32280481	      0.13672488	     -0.13672488	      0.32280481	     -0.06536141	      0.52822791	      0.23743481	     -0.23743481	     -0.52822791	      0.06536141	     99.58791229	     76.42690912	     -1.73813696	    -24.61327104	     28.72689721	     35.83847068	      0.11224854	     -0.07636926	      0.14202427	     -0.03818463	     31.10866175	     15.34878087	      4.83047287	      4.96181897	     -4.34015408	     12.30402654	     15.57502658	    -19.21678911	    -15.87522527	     -3.42689850	     10.09784884	     13.53910425	    -20.41695979	     -5.69653434	     -9.80053775	     21.93799539	    -28.44065602	    -13.76000317	     -7.24416556	      4.89689154	      0.00085020	     -0.03089254	     -0.00483034	      0.01654682	     -0.01800380	     -0.00790214	      0.00490194	     -0.06661228	     -0.00293698	      0.00736393	     -0.18357917	     -0.00035036	     -0.00430061	      0.00121363	      0.00017160	      0.00007325	      0.00002930	      0.00014650	      0.00009376	      0.00028129	      0.00015823	     -0.00000994	     -0.00024010	     -0.00028812	      0.00250511	      0.00878910	      0.00611416	     -0.00819467	      0.01978609	     -0.01876707	      0.00250511	      0.00878910	      0.00611416	      0.00055197	      0.01834247	     -0.00963829	      0.00395777	      0.00488751	      0.01599162	      0.00000000	      0.00781201	      0.00000000	     -0.00717564	     -0.03316081	     -0.00644154	      0.01629603	     -0.00057767	     -0.00506179	     -0.00089165	      0.01494572	     -0.00611416	      0.00246265	      0.02156939	     -0.01783296	     -0.00598678	      0.01295013	     -0.00547727	     -0.01248307	      0.02734387	     -0.03061325	     -0.02343761	      0.01447867	     -0.00734548	     -0.01554015	      0.03158982	     -0.03825595
      0.50000000	     -0.32240749	      0.13655659	     -0.13655659	      0.32240749	     -0.06528096	      0.52757774	      0.23714256	     -0.23714256	     -0.52757774	      0.06528096	     99.67474620	     76.33283845	     -1.73965250	    -25.04305496	     28.72653844	     35.93727419	      0.10807946	     -0.08424102	      0.13711796	     -0.04212051	     31.13643114	     15.61666184	      4.24001183	      5.59608055	     -3.87067679	     12.19881108	     14.92712897	    -19.31594695	    -15.85582451	     -3.49731773	     10.32328249	     13.40110073	    -20.16022936	     -5.66732597	     -9.88528263	     21.38749259	    -28.60244276	    -13.75976955	     -7.56789899	      4.92023294	      0.00085018	     -0.03089250	     -0.00483034	      0.01654795	     -0.01800371	     -0.00789217	      0.00489464	     -0.06661700	     -0.00294494	      0.00737375	     -0.18357724	     -0.00035137	     -0.00431246	      0.00121752	      0.00017112	      0.00008025	      0.00003210	      0.00016049	      0.00010272	      0.00030815	      0.00017333	     -0.00000997	     -0.00023982	     -0.00028778	      0.00250202	      0.00877828	      0.00610663	     -0.00818458	      0.01976174	     -0.01874397	      0.00250202	      0.00877828	      0.00610663	      0.00055129	      0.01831990	     -0.00962643	      0.00395421	      0.00488149	      0.01598296	      0.00000000	      0.00779265	      0.00000000	     -0.00716681	     -0.03312000	     -0.00642547	      0.01651630	     -0.00059164	     -0.00524193	     -0.00089055	      0.01492732	     -0.00610663	      0.00245962	      0.02154284	     -0.01781101	     -0.00597941	      0.01293419	     -0.00547052	     -0.01246771	      0.02731022	     -0.03057557	     -0.02340876	      0.01446084	     -0.00733644	     -0.01552102	      0.03155093	     -0.03820886
      0.53333333	     -0.32440526	      0.13740276	     -0.13740276	      0.32440526	     -0.06568547	      0.53084683	      0.23861200	     -0.23861200	     -0.53084683	      0.06568547	     99.22843227	     76.80582867	     -1.73186285	    -22.59971082	     28.53590150	     33.18810999	      0.11078401	     -0.10055761	      0.14030399	     -0.05027880	     31.46682377	     16.01037085	      1.73904662	      8.84730768	     -3.47242207	     12.07468012	     14.29916860	    -17.24897742	    -16.32544745	     -3.46578283	     11.35433441	     13.04105925	    -20.63814555	     -5.82824354	     -8.36201562	     18.47991065	    -28.39789697	    -13.73690153	     -8.68190482	      4.98929272	      0.00084388	     -0.03087065	     -0.00482682	      0.01650860	     -0.01795192	     -0.00816468	      0.00509777	     -0.06648565	     -0.00272348	      0.00710159	     -0.18363018	     -0.00032059	     -0.00398256	      0.00111030	      0.00018275	      0.00009442	      0.00003777	      0.00018883	      0.00012085	      0.00036256	      0.00020394	     -0.00001033	     -0.00023658	     -0.00028390	      0.00251753	      0.00883268	      0.00614447	     -0.00823530	      0.01988419	     -0.01886011	      0.00251753	      0.00883268	      0.00614447	      0.00055471	      0.01843341	     -0.00968608	      0.00397205	      0.00491174	      0.01602628	      0.00000000	      0.00789022	      0.00000000	     -0.00721122	     -0.03332522	     -0.00650646	      0.01523123	     -0.00051309	     -0.00425297	     -0.00089607	      0.01501982	     -0.00614447	      0.00247486	      0.02167633	     -0.01792138	     -0.00601646	      0.01301433	     -0.00550442	     -0.01254496	      0.02747944	     -0.03076503	     -0.02355381	      0.01455045	     -0.00738190	     -0.01561720	      0.03174644	     -0.03844562
      0.56666667	     -0.32231804	      0.13651871	     -0.13651871	      0.32231804	     -0.06526285	      0.52743138	      0.23707677	     -0.23707677	     -0.52743138	      0.06526285	     99.71289701	     76.31166207	     -1.74031836	    -25.09829416	     28.60038897	     35.37473467	      0.09825034	     -0.11426575	      0.12543839	     -0.05713287	     31.42195813	     16.02096679	      2.58829823	      6.86557914	     -3.06560710	     12.15111454	     14.60911100	    -17.88664889	    -15.60259018	     -3.43455502	     10.35615250	     13.64825722	    -20.21055420	     -5.83271479	     -8.87021879	     19.83822472	    -28.59191192	    -13.74987898	     -7.73897650	      4.95291612	      0.00084601	     -0.03087804	     -0.00482801	      0.01654129	     -0.01796944	     -0.00794879	      0.00493621	     -0.06659012	     -0.00289962	      0.00731787	     -0.18358824	     -0.00034553	     -0.00424496	      0.00119539	      0.00017383	      0.00010598	      0.00004239	      0.00021195	      0.00013565	      0.00040695	      0.00022891	     -0.00001028	     -0.00023703	     -0.00028443	      0.00250133	      0.00877585	      0.00610494	     -0.00818231	      0.01975626	     -0.01873877	      0.00250133	      0.00877585	      0.00610494	      0.00055114	      0.01831481	     -0.00962376	      0.00395341	      0.00488014	      0.01598101	      0.00000000	      0.00778830	      0.00000000	     -0.00716482	     -0.03311081	     -0.00642186	      0.01654441	     -0.00059344	     -0.00526528	     -0.00089030	      0.01492318	     -0.00610494	      0.00245893	      0.02153687	     -0.01780607	     -0.00597775	      0.01293060	     -0.00546901	     -0.01246425	      0.02730264	     -0.03056709	     -0.02340226	      0.01445683	     -0.00733440	     -0.01551672	      0.03154218	     -0.03819826
